Coordinates
version=1
nRows=19
nColumns=36
inDegrees=yes

Units are S.I. units (second, meters, Newtons, ...)
If the header above contains a line with 'inDegrees', this indicates whether rotational values are in degrees (yes) or radians (no).

endheader
time	pelvis_tilt	pelvis_list	pelvis_rotation	pelvis_tx	pelvis_ty	pelvis_tz	hip_flexion_r	hip_adduction_r	hip_rotation_r	knee_angle_r	knee_angle_r_beta	ankle_angle_r	subtalar_angle_r	mtp_angle_r	hip_flexion_l	hip_adduction_l	hip_rotation_l	knee_angle_l	knee_angle_l_beta	ankle_angle_l	subtalar_angle_l	mtp_angle_l	lumbar_extension	lumbar_bending	lumbar_rotation	arm_flex_r	arm_add_r	arm_rot_r	elbow_flex_r	pro_sup_r	arm_flex_l	arm_add_l	arm_rot_l	elbow_flex_l	pro_sup_l
      0.00000000	     10.37768540	     -3.05867368	     -0.00448330	      0.72714812	      1.05865728	      0.74106085	     -7.09343005	      5.66534823	      1.58450981	      8.84575378	      0.15438753	      5.65308566	     -9.65399772	     -7.18525862	     11.13746937	     -7.26023821	     -2.41046672	     61.13474957	      1.06700267	     -1.92914527	    -12.43299645	     -7.18525862	    -25.61342181	      3.22767192	      3.70282564	     10.32346539	    -17.81451353	      7.70400675	     34.66271278	     96.14257528	      7.49754833	    -10.47489727	      5.31322176	     25.34110028	     93.87641586
      0.01666670	     10.30987635	     -2.72497904	      0.08396219	      0.72335005	      1.05707706	      0.74364736	     -8.22535799	      5.45962112	      1.44681624	      8.43055823	      0.14714100	      6.34844465	     -6.59494456	     -7.21084812	     12.25732775	     -6.97083560	     -2.76315939	     57.55755427	      1.00456883	      3.82337977	     -9.97910217	     -7.21084812	    -25.20094930	      2.61382501	      4.08262843	     11.73360936	    -18.44244034	     11.33419394	     33.41773448	     98.49143380	      7.79925522	    -10.90820542	     10.77495962	     24.03715987	     96.47930903
      0.03333330	     10.32684299	     -2.65585166	     -0.43697194	      0.71842057	      1.05726469	      0.74422434	     -8.86041529	      5.18084416	      1.52809456	      9.08346279	      0.15853633	      7.06401276	     -5.32410301	     -7.23973406	     12.66351707	     -7.08342919	     -3.14913593	     53.21137819	      0.92871375	      6.60391531	     -8.20519600	     -7.23973406	    -25.33100248	      2.16904865	      4.79674092	     12.22036538	    -19.55888578	     12.92813948	     34.68070068	    101.26998669	      8.06655445	    -11.34190130	     15.01366503	     23.15543979	     99.26233699
      0.05000000	      9.65596306	     -2.47017650	     -0.67011258	      0.71562730	      1.05687169	      0.74305091	     -8.81222518	      4.82740668	      1.52718725	      9.32258494	      0.16270980	      8.67175969	     -4.23091723	     -7.26721887	     13.71829577	     -6.99744617	     -3.70309050	     48.61129785	      0.84842720	      7.09730133	     -7.57842399	     -7.26721887	    -24.86745987	      1.80262419	      5.11998628	     12.05028667	    -20.08026571	     11.88472282	     36.07214553	    103.28644520	      7.93668797	    -11.38553747	     16.67297919	     22.34947888	    101.21573653
      0.06666670	      9.02618441	     -2.36131325	     -1.08218204	      0.71481430	      1.05527523	      0.74205822	     -8.82713912	      4.57595549	      1.82476793	      9.57301926	      0.16708071	     10.17726537	     -3.72619665	     -7.27500608	     14.58092167	     -6.83155547	     -4.11951386	     43.92861995	      0.76669905	      7.17746494	     -7.57242396	     -7.27500608	    -24.40903260	      1.50280162	      5.26603124	     12.17798914	    -20.50705323	     11.51293481	     36.94021760	    103.26664954	      7.43085241	    -11.25608853	     16.69761065	     21.89193614	    101.35662931
      0.08333330	      8.33419342	     -2.38730903	     -1.32766969	      0.71495682	      1.05230065	      0.74143282	     -9.07254065	      4.52459680	      2.17908660	      9.32903883	      0.16282244	     10.98132447	     -3.75662526	     -7.27487783	     15.52371838	     -6.70468369	     -4.20702466	     39.21605301	      0.68444924	      7.17664903	     -7.22369361	     -7.27487783	    -23.79906148	      1.42849736	      5.25646582	     12.33194370	    -20.80983913	     11.29437526	     37.46328180	    103.40392015	      6.91036092	    -11.13067363	     16.75678526	     21.54177853	    101.60261181
      0.10000000	      7.75540520	     -2.52618429	     -1.49329359	      0.71485143	      1.04856315	      0.74059604	     -9.66219365	      4.58277456	      2.41167962	      8.76267751	      0.15293757	     11.60059580	     -3.72724002	     -7.27152488	     16.29043663	     -6.61211122	     -4.05855009	     34.41935272	      0.60073103	      6.93965063	     -6.83469708	     -7.27152488	    -23.22226538	      1.56777340	      5.29681732	     12.49496503	    -21.10944279	     11.02667631	     37.81987854	    103.81868592	      6.53453964	    -10.88199927	     16.75866424	     21.02862306	    102.13225622
      0.11666670	      7.38246637	     -2.65668564	     -1.66302723	      0.71451240	      1.04559762	      0.73971440	    -10.72300401	      4.59520807	      2.42697151	      7.84366819	      0.13689784	     12.46496307	     -2.86882111	     -7.31335266	     16.72694821	     -6.46606301	     -3.77064569	     29.40809326	      0.51326805	      6.39643052	     -6.72368047	     -7.31335266	    -22.99993484	      1.55445178	      6.57743974	     10.78596218	    -21.69440960	      8.38439474	     40.35122683	     99.45642444	      7.11115610	    -10.37204647	     17.61689639	     20.08960530	    101.07063443
      0.13333330	      6.87966728	     -2.87289515	     -1.82684982	      0.71425588	      1.04282957	      0.73873404	    -11.84046384	      4.73162003	      2.59425831	      6.68426957	      0.11666251	     13.12407624	     -2.18498871	     -7.30085278	     17.28707736	     -6.46329499	     -3.46889214	     24.39515841	      0.42577584	      6.08131642	     -6.03828568	     -7.30085278	    -22.53862658	      1.79328829	      6.60613191	     10.89343388	    -21.92690490	      8.09497660	     41.01260348	     98.81672160	      6.49023887	    -10.24604524	     17.29601046	     20.34227992	    100.53679215
      0.15000000	      6.33360545	     -3.11025654	     -1.95311169	      0.71334685	      1.04016088	      0.73696964	    -13.00591425	      4.90444462	      2.71956084	      5.49454007	      0.09589782	     13.62775357	     -1.40571051	     -7.28617581	     17.85734024	     -6.42913753	     -2.87561556	     19.44718972	      0.33941749	      5.95712719	     -5.22342198	     -7.28617581	    -22.03841267	      2.05072193	      6.70197825	     10.81513014	    -22.19817158	      7.80357018	     41.78047101	     98.04024812	      5.94786958	    -10.10721160	     16.94433987	     20.65616370	     99.96763757
      0.16666670	      5.61443413	     -3.46184329	     -2.21857173	      0.71172593	      1.03750134	      0.73495046	    -13.89107423	      5.18644481	      3.08798716	      4.62418400	      0.08070724	     13.96183288	     -0.73816293	     -7.27752307	     18.61304141	     -6.58202645	     -2.46808124	     14.89704734	      0.26000252	      6.46870743	     -3.47034643	     -7.27752307	    -21.25411717	      2.42545956	      7.02893399	     10.82684039	    -22.29241556	      7.29391233	     41.81960471	     96.15902805	      6.00952368	     -9.48491792	     16.39689617	     19.30017819	     98.95555915
      0.18333330	      4.99509486	     -3.76303016	     -2.41111160	      0.71086103	      1.03428307	      0.73340462	    -14.74383829	      5.41397179	      3.16859031	      4.17143029	      0.07280519	     14.31526229	      0.17641404	     -7.28565241	     19.24290289	     -6.59404551	     -1.67393710	     10.89487197	      0.19015139	      6.80411558	     -2.21608911	     -7.28565241	    -20.60513946	      2.69600832	      7.43830519	     10.61189274	    -22.54666855	      7.20400575	     41.98112112	     93.68941362	      6.10558967	     -9.10413708	     16.55029214	     18.56268123	     98.18445764
      0.20000000	      4.52989253	     -3.98015873	     -2.52665267	      0.71127921	      1.03232168	      0.73275689	    -15.59757942	      5.56614035	      3.18008472	      4.11125315	      0.07175490	     14.53008478	      0.81729488	     -7.29890943	     19.74659910	     -6.50665809	     -0.93911642	      7.91268451	      0.13810240	      7.10707386	     -0.97335171	     -7.29890943	    -20.10848658	      2.85971884	      7.60609639	     10.50566343	    -22.66272530	      7.29592786	     42.10023643	     91.51617545	      6.08049810	     -8.92534403	     16.69753709	     18.26929440	     97.45239627
      0.21666670	      4.11098659	     -4.03936654	     -2.64369902	      0.71366189	      1.03067512	      0.73179993	    -16.30322729	      5.53290838	      3.18261665	      4.43466688	      0.07739954	     14.69602664	      1.25105610	     -7.35011181	     20.20807584	     -6.23645963	     -0.37631338	      6.26389214	      0.10932554	      7.08484017	     -0.25316858	     -7.35011181	    -19.46818211	      2.80135837	      7.80628760	     10.30575170	    -22.60164754	      7.29614726	     41.80106375	     89.85149217	      6.25948082	     -8.77032173	     17.02859520	     17.63366269	     97.20915591
      0.23333330	      3.77930467	     -3.89818117	     -2.76570720	      0.71822736	      1.02917690	      0.72929334	    -16.95826614	      5.25672500	      3.51545333	      4.99594530	      0.08719569	     14.52223550	      0.97475345	     -7.36016550	     20.58123998	     -5.73008629	     -0.13091015	      6.10046867	      0.10647326	      6.78245956	      0.06877575	     -7.36016550	    -18.75050359	      2.57908001	      7.49528549	     10.45613564	    -22.13679680	      7.22957039	     41.05485693	     89.51075854	      6.22579290	     -8.65289273	     16.90244205	     16.76885941	     96.51332779
      0.25000000	      3.75902612	     -3.46505773	     -2.87184054	      0.72525859	      1.02585290	      0.72481504	    -17.80928819	      4.55219677	      3.34390795	      5.87103577	      0.10246890	     14.48383069	      1.50639970	     -7.36379996	     20.50509389	     -4.85277882	     -0.05416706	      7.03885265	      0.12285115	      6.04295773	     -0.13889854	     -7.36379996	    -18.19476064	      1.92324711	      7.68351494	      9.87463128	    -21.91589698	      7.00152135	     40.47009234	     89.29296764	      6.18082358	     -8.67128255	     16.94165863	     16.76223120	     96.49166383
      0.26666670	      3.79526797	     -2.93399037	     -2.94051143	      0.73317820	      1.02230555	      0.71964965	    -18.59576249	      3.67971284	      3.47239903	      7.03606007	      0.12280241	     13.83781087	      1.47653547	     -7.39222712	     20.32921858	     -3.86024357	      0.01477536	      8.81344011	      0.15382355	      5.03305315	     -0.69543015	     -7.39222712	    -17.51796082	      1.20743967	      7.84075992	      9.03267607	    -21.41825945	      5.82425675	     39.88075333	     87.80831008	      6.39176405	     -8.56791599	     18.08725264	     15.62172456	     95.93584265
      0.28333330	      3.81649449	     -2.37576803	     -2.96897815	      0.74024029	      1.02106841	      0.71516150	    -19.19083986	      2.73880585	      3.71027516	      8.53208665	      0.14891300	     12.51242110	      1.12187374	     -7.41140102	     20.09828773	     -2.86551119	      0.13282691	     10.91159582	      0.19044327	      3.84990399	     -1.41560260	     -7.41140102	    -16.77576548	      0.46687567	      7.77954740	      8.30040912	    -20.95882298	      5.13510130	     38.94918313	     86.60452771	      6.31203306	     -8.55099456	     19.06371744	     14.79866304	     94.78632585
      0.30000000	      3.83823473	     -1.81847001	     -2.94688402	      0.74557584	      1.02198202	      0.71205211	    -19.51130739	      1.79505012	      3.84153582	     10.41050092	      0.18169752	     10.68073082	      0.60798783	     -7.42565637	     19.76651658	     -1.92782072	      0.25456150	     12.90953959	      0.22531397	      2.80511714	     -2.04488131	     -7.42565637	    -16.13180119	     -0.28239710	      7.69598660	      7.20675883	    -20.45439632	      4.09862871	     38.40876911	     85.95133982	      6.26033830	     -8.70789577	     20.27681728	     14.43494897	     94.29328585
